# xmcd CD database file generated by Grip 3.0.3
#
# Track frame offsets:
#       182
#       15200
#       35057
#       52785
#
# Disc length: 919 seconds
#
# Revision: 2
# Processed by: cddbd v1.4PL0 Copyright (c) Steve Scherf et al.
# Submitted via: Grip 3.0.3
#
DISCID=21039504
DTITLE=Shania Twain - You're Still The One
DYEAR=1998
DGENRE=Country
TTITLE0=You're Still The One (Radio Edit Without Intro)
TTITLE1=(If You're Not In It For Love) I'm Outta Here
TTITLE2=You Win My Love
TTITLE3=You're Still The One (Radio Edit With Intro)
EXTD=
EXTT0=
EXTT1=
EXTT2=
EXTT3=
PLAYORDER=
